<svg viewBox="0 0 51 48" xmlns="http://www.w3.org/2000/svg" fill-rule="evenodd" clip-rule="evenodd" stroke-linejoin="round" stroke-miterlimit="1.414"><path d="M0 43.709A4.29 4.29 0 0 0 4.29 48h13.944a4.29 4.29 0 0 0 4.291-4.291V26.547a4.29 4.29 0 0 0-4.291-4.29h-6.886a2.144 2.144 0 0 1-2.145-2.145c0-.386.096-.654.096-.654A17.254 17.254 0 0 1 19.896 8.259l.022-.021A4.292 4.292 0 0 0 16.605.321l-.195.076C6.811 4.14 0 13.472 0 24.402v19.307zm27.888 0A4.29 4.29 0 0 0 32.179 48h13.944a4.29 4.29 0 0 0 4.29-4.291V26.547a4.29 4.29 0 0 0-4.29-4.29h-6.887a2.144 2.144 0 0 1-2.145-2.145c0-.397.096-.654.096-.654A17.256 17.256 0 0 1 47.785 8.259l.021-.021A4.292 4.292 0 0 0 46.123 0c-.579 0-1.126.118-1.63.321l-.194.076c-9.6 3.743-16.411 13.075-16.411 24.005v19.307z" fill="#fff"/></svg>